<?xml version="1.0" standalone="no"?>
<!DOCTYPE svg PUBLIC "-//W3C//DTD SVG 20010904//EN"
 "http://www.w3.org/TR/2001/REC-SVG-20010904/DTD/svg10.dtd">
<svg version="1.0" xmlns="http://www.w3.org/2000/svg"
 width="797.000000pt" height="1053.000000pt" viewBox="0 0 797.000000 1053.000000"
 preserveAspectRatio="xMidYMid meet">

<g transform="translate(0.000000,1053.000000) scale(0.100000,-0.100000)"
fill="#000000" stroke="none">
<path d="M4683 10485 c27 -148 31 -229 15 -340 -45 -310 -214 -593 -558 -935
-152 -151 -300 -282 -650 -574 -360 -300 -483 -408 -635 -561 -407 -406 -550
-724 -490 -1090 69 -421 364 -870 910 -1384 175 -164 548 -471 560 -459 2 2
-6 20 -19 39 -55 80 -231 399 -323 584 -153 307 -349 768 -372 874 -51 238 52
503 326 836 104 127 180 210 458 500 372 389 541 587 691 815 217 329 314 616
314 929 0 187 -12 263 -73 451 -31 98 -112 282 -142 322 l-17 23 5 -30z"/>
<path d="M6185 8743 c-450 -56 -924 -194 -1270 -371 -240 -122 -402 -238 -560
-403 -259 -270 -386 -573 -389 -924 -1 -142 6 -189 46 -315 45 -139 105 -249
288 -525 229 -344 270 -441 271 -636 0 -94 -3 -119 -31 -200 -49 -149 -110
-249 -239 -398 l-65 -74 33 6 c18 4 80 26 138 49 466 186 763 554 763 949 0
195 -71 392 -261 729 -73 131 -143 282 -174 380 -22 68 -27 106 -28 190 -1
112 6 147 54 242 61 123 181 264 384 455 246 229 547 462 940 727 88 59 162
112 163 117 4 9 -6 9 -63 2z"/>
<path d="M2409 5269 c-801 -32 -1374 -159 -1583 -350 -67 -61 -92 -100 -106
-166 -46 -213 229 -385 768 -482 350 -63 748 -91 1291 -91 676 0 1237 40 1916
135 241 34 615 99 650 114 47 20 621 459 612 468 -3 2 -67 -7 -143 -21 -541
-98 -1397 -168 -2277 -185 -987 -20 -1637 34 -1700 140 -17 28 3 72 54 121 84
82 387 212 666 288 46 12 80 26 77 31 -3 5 -13 8 -22 7 -9 0 -101 -5 -203 -9z"/>
<path d="M6698 5269 c-92 -13 -177 -38 -274 -79 -87 -37 -208 -103 -218 -118
-2 -4 40 -5 95 -4 351 13 652 -200 701 -495 41 -245 -104 -610 -372 -937 -138
-170 -379 -402 -572 -551 -42 -33 -75 -61 -74 -63 9 -8 294 63 424 106 510
171 863 437 1037 782 53 106 99 249 115 360 17 113 8 372 -15 460 -23 88 -95
234 -143 292 -164 196 -426 288 -704 247z"/>
<path d="M2175 4083 c-205 -29 -462 -157 -588 -292 -63 -69 -102 -155 -93
-209 29 -186 387 -354 961 -452 289 -50 579 -71 965 -71 587 -1 1091 60 1599
191 228 60 591 181 591 198 0 8 -544 357 -572 367 -9 4 -56 -5 -104 -20 -272
-83 -669 -151 -1094 -186 -191 -17 -738 -17 -910 -1 -375 35 -636 109 -734
207 -65 65 -65 135 -1 220 47 60 48 57 -20 48z"/>
<path d="M2390 2965 c-231 -48 -410 -169 -496 -335 -37 -71 -39 -164 -7 -226
28 -52 108 -125 187 -169 185 -103 539 -185 926 -214 190 -14 766 -6 950 13
443 47 835 130 1139 242 113 42 361 162 361 175 0 5 -140 102 -310 215 -206
137 -316 205 -328 201 -9 -3 -64 -22 -122 -42 -345 -119 -804 -191 -1286 -202
-559 -13 -880 66 -910 222 -5 28 -1 47 19 85 l26 50 -42 -1 c-23 0 -71 -7
-107 -14z"/>
<path d="M951 2429 c-347 -27 -650 -145 -825 -324 -116 -118 -150 -233 -107
-373 82 -272 435 -496 1040 -662 471 -130 1041 -211 1766 -252 270 -15 1018
-15 1295 1 1299 72 2272 292 2782 627 40 26 114 89 164 138 121 121 164 205
172 337 4 70 1 99 -13 136 -26 70 -71 127 -141 182 -66 50 -169 109 -178 100
-3 -2 0 -25 6 -49 16 -72 4 -186 -26 -250 -28 -60 -99 -149 -157 -199 -63 -54
-204 -137 -316 -186 -422 -185 -1045 -304 -1904 -362 -355 -24 -1182 -24
-1539 0 -1023 69 -1723 226 -1958 441 -118 108 -123 210 -14 307 129 116 358
183 629 183 84 0 151 1 150 2 -28 26 -300 177 -330 184 -45 10 -303 31 -352
29 -16 -1 -81 -6 -144 -10z"/>
<path d="M7890 1333 c-549 -476 -1410 -809 -2490 -963 -473 -67 -841 -91
-1390 -91 -822 0 -1534 73 -2364 240 -110 22 -201 39 -203 37 -5 -5 123 -52
332 -122 1549 -525 3522 -574 4915 -122 730 236 1186 595 1266 996 9 46 14 85
13 87 -2 1 -38 -26 -79 -62z"/>
</g>
</svg>
