<?xml version="1.0" standalone="no"?>
<!DOCTYPE svg PUBLIC "-//W3C//DTD SVG 20010904//EN"
 "http://www.w3.org/TR/2001/REC-SVG-20010904/DTD/svg10.dtd">
<svg version="1.0" xmlns="http://www.w3.org/2000/svg"
 width="737.000000pt" height="692.000000pt" viewBox="0 0 737.000000 692.000000"
 preserveAspectRatio="xMidYMid meet">

<g transform="translate(0.000000,692.000000) scale(0.100000,-0.100000)"
fill="#000000" stroke="none">
<path d="M3597 6789 c-20 -5 -55 -18 -76 -28 -21 -11 -616 -356 -1322 -766
-853 -496 -1298 -760 -1326 -787 -23 -22 -54 -68 -70 -102 l-28 -61 -3 -1575
-2 -1575 26 -83 c21 -66 33 -88 62 -113 38 -31 2585 -1511 2677 -1555 65 -31
199 -34 272 -6 27 10 631 357 1343 771 1422 825 1371 792 1422 918 l23 58 -1
1585 c0 872 -3 1604 -6 1628 -7 48 -41 98 -91 136 -76 57 -2679 1546 -2719
1556 -52 11 -129 11 -181 -1z m233 -1199 c670 -48 1261 -394 1637 -960 28 -41
55 -85 61 -97 11 -20 -5 -31 -339 -223 -192 -111 -351 -201 -353 -199 -1 2
-23 36 -48 74 -313 477 -887 695 -1445 551 -484 -126 -871 -547 -959 -1046
-22 -123 -22 -335 -1 -456 56 -312 230 -608 473 -801 243 -194 522 -292 829
-293 275 0 542 84 765 241 103 72 254 226 325 332 32 48 62 87 67 87 10 0 668
-386 682 -400 11 -11 -38 -93 -129 -215 -354 -472 -868 -771 -1455 -846 -139
-18 -423 -15 -555 5 -476 73 -868 270 -1205 606 -394 394 -607 882 -627 1435
-21 591 195 1147 607 1565 408 413 886 620 1495 648 17 1 95 -3 175 -8z m2090
-1444 c0 -12 -42 -227 -55 -284 -6 -23 -5 -23 97 -20 l102 3 31 155 31 155
132 3 133 3 -6 -23 c-13 -57 -55 -272 -55 -284 0 -10 15 -14 55 -14 l55 0 0
-135 0 -135 -84 0 -84 0 -22 -97 c-12 -54 -23 -104 -25 -110 -3 -10 22 -13
105 -13 l110 0 0 -135 0 -135 -134 0 -133 0 -22 -112 c-13 -62 -27 -134 -33
-160 l-10 -48 -134 0 c-134 0 -134 0 -129 23 13 56 55 271 55 283 0 11 -22 14
-99 14 l-98 0 -22 -112 c-13 -62 -27 -134 -33 -160 l-10 -48 -129 0 c-71 0
-129 4 -129 8 0 5 14 76 30 157 17 81 30 150 30 152 0 1 -29 3 -65 3 l-65 0 0
135 0 134 92 3 93 3 22 95 c12 52 22 101 23 108 0 9 -29 12 -115 12 l-115 0 0
135 0 134 142 3 142 3 32 155 c18 85 32 156 33 158 1 1 60 2 131 2 103 0 130
-3 130 -14z"/>
<path d="M5805 3558 c-7 -19 -45 -187 -45 -198 0 -6 43 -10 100 -10 95 0 100
1 105 23 3 12 12 54 20 92 9 39 18 78 21 88 5 15 -4 17 -96 17 -71 0 -102 -4
-105 -12z"/>
</g>
</svg>
