<?xml version="1.0" standalone="no"?>
<!DOCTYPE svg PUBLIC "-//W3C//DTD SVG 20010904//EN"
 "http://www.w3.org/TR/2001/REC-SVG-20010904/DTD/svg10.dtd">
<svg version="1.0" xmlns="http://www.w3.org/2000/svg"
 width="1124.000000pt" height="1152.000000pt" viewBox="0 0 1124.000000 1152.000000"
 preserveAspectRatio="xMidYMid meet">

<g transform="translate(0.000000,1152.000000) scale(0.100000,-0.100000)"
fill="#000000" stroke="none">
<path d="M7735 10900 c-1232 -330 -2256 -604 -2276 -610 -36 -10 -46 -27 -375
-607 l-339 -596 -689 6 -689 7 -1671 -1668 c-919 -916 -1671 -1672 -1671
-1678 0 -7 752 -762 1672 -1678 l1672 -1666 688 6 688 7 339 -597 339 -596 51
-15 c111 -31 4478 -1196 4505 -1201 28 -6 30 -3 40 32 6 22 280 1044 611 2272
330 1229 600 2240 600 2249 0 8 -156 279 -346 601 -257 437 -343 591 -336 602
117 191 682 1162 682 1172 0 9 -270 1021 -600 2249 -331 1229 -605 2251 -611
2272 -7 25 -15 37 -27 36 -9 0 -1025 -270 -2257 -599z m-380 -2842 l-1004
-1733 -2012 -3 -2011 -2 423 431 c233 237 803 817 1265 1288 l841 856 1739
447 c957 246 1744 447 1751 447 6 1 -440 -779 -992 -1731z m2484 -605 c259
-925 471 -1688 471 -1695 1 -7 -216 -790 -482 -1740 -362 -1295 -486 -1724
-494 -1715 -18 19 -1997 3441 -1997 3452 0 8 1942 3370 1990 3445 l16 24 13
-44 c7 -25 225 -802 483 -1727z m-2485 -3998 c552 -952 1002 -1731 1001 -1733
-2 -2 -758 190 -1681 427 -924 236 -1709 437 -1746 447 l-67 16 -1043 1062
c-574 583 -1144 1163 -1267 1288 l-224 228 2012 -2 2012 -3 1003 -1730z"/>
</g>
</svg>
