<?xml version="1.0" standalone="no"?>
<!DOCTYPE svg PUBLIC "-//W3C//DTD SVG 20010904//EN"
 "http://www.w3.org/TR/2001/REC-SVG-20010904/DTD/svg10.dtd">
<svg version="1.0" xmlns="http://www.w3.org/2000/svg"
 width="800.000000pt" height="800.000000pt" viewBox="0 0 800.000000 800.000000"
 preserveAspectRatio="xMidYMid meet">

<g transform="translate(0.000000,800.000000) scale(0.100000,-0.100000)"
fill="#000000" stroke="none">
<path d="M3329 6919 c-24 -17 -61 -47 -81 -67 -37 -35 -38 -35 -59 -16 -21 19
-21 19 -41 -6 -46 -57 -73 -131 -104 -289 l-5 -24 -23 22 -23 22 -17 -26 c-43
-66 -69 -158 -73 -265 -6 -128 8 -189 74 -326 25 -53 46 -102 46 -109 0 -6
-19 -39 -42 -74 -30 -44 -47 -61 -59 -57 -96 27 -132 14 -174 -61 -28 -49 -33
-53 -67 -53 -45 0 -44 1 -184 -185 -469 -628 -671 -1110 -703 -1683 -7 -116
-6 -124 14 -145 16 -17 20 -31 16 -55 -7 -45 13 -167 36 -219 10 -23 41 -65
69 -93 l50 -50 -255 0 c-195 0 -256 3 -259 13 -6 18 -67 692 -69 756 -1 54 0
55 31 61 53 12 96 44 128 95 l30 48 3 861 c2 607 -1 876 -9 914 -12 62 -63
126 -116 149 -46 19 -341 18 -386 -1 -40 -17 -81 -57 -104 -99 -17 -30 -18
-92 -18 -927 l0 -895 21 -40 c35 -64 83 -97 162 -110 30 -5 42 -12 42 -23 0
-10 4 -75 10 -147 25 -341 60 -879 60 -936 0 -35 4 -79 10 -98 26 -92 109
-151 212 -151 l58 0 0 -54 c0 -96 54 -144 163 -145 l47 -1 0 -125 0 -125 35 0
35 0 0 -570 0 -570 -275 0 -275 0 0 -115 0 -115 665 0 666 0 -3 113 -3 112
-97 3 -97 3 -8 37 c-16 75 -7 213 21 321 15 58 25 115 22 127 -5 19 0 27 24
39 l29 15 50 -74 c55 -80 83 -97 116 -67 91 81 209 180 372 314 106 87 197
166 202 175 7 14 205 704 277 969 12 43 22 63 36 66 14 4 18 1 14 -11 -80
-263 -239 -944 -317 -1356 -35 -183 -34 -197 17 -206 29 -6 29 -7 26 -65 -4
-86 -9 -105 -32 -105 -16 0 -24 -16 -45 -83 -20 -67 -25 -104 -25 -190 l0
-106 30 -16 c25 -13 102 -15 543 -15 l515 0 6 23 c13 48 6 96 -16 121 -18 19
-45 29 -123 45 -55 11 -167 36 -250 55 -82 19 -167 37 -187 41 -32 5 -38 10
-38 30 0 18 -5 25 -19 25 -37 0 -36 5 10 184 l10 38 88 -7 c54 -4 102 -3 128
4 l40 11 12 117 c31 314 103 720 216 1218 102 451 100 440 87 504 -47 223
-350 379 -952 489 -192 36 -405 68 -505 77 -239 21 -326 200 -304 628 17 346
52 574 120 782 46 141 78 192 152 242 186 125 444 101 524 -51 36 -68 27 -392
-21 -750 -12 -91 -19 -162 -15 -158 11 10 85 291 108 407 32 162 51 328 51
454 l0 119 38 66 c44 77 48 78 167 40 109 -35 173 -41 213 -20 31 16 72 79 72
111 0 8 9 20 20 27 11 7 20 23 20 35 0 12 5 25 10 28 6 3 10 24 10 45 0 37 2
39 38 45 81 14 77 4 77 176 l0 154 36 50 c47 65 83 137 103 205 18 67 25 145
11 144 -5 -1 -24 -4 -41 -7 -29 -6 -32 -4 -38 25 -4 21 -30 55 -76 100 -38 38
-73 80 -76 93 -3 14 -8 25 -11 25 -3 0 -26 -15 -52 -34 -69 -51 -140 -130
-206 -229 -52 -78 -57 -91 -46 -109 10 -16 10 -24 -2 -42 -13 -20 -12 -25 23
-64 59 -66 74 -152 44 -252 -24 -81 -59 -126 -120 -156 -49 -24 -63 -26 -137
-22 -180 10 -297 125 -297 292 0 84 23 138 80 190 37 34 119 66 166 66 16 0
25 9 33 30 6 18 17 30 28 30 13 0 26 20 46 70 16 38 51 104 78 145 27 42 49
80 49 86 0 9 -39 107 -46 117 -7 9 -50 -13 -83 -44 l-37 -33 -39 27 c-21 15
-43 39 -50 55 l-11 27 -45 -31z m-285 -3987 c164 -67 191 -81 198 -103 8 -24
3 -32 -49 -82 -212 -200 -531 -445 -826 -632 -42 -28 -80 -59 -83 -70 -3 -11
2 -40 11 -64 8 -24 15 -45 15 -47 0 -2 -18 -15 -41 -29 -29 -19 -48 -25 -68
-20 -19 4 -48 -4 -94 -24 l-67 -30 0 174 0 175 35 0 35 0 0 125 0 125 45 0
c58 0 106 20 133 55 17 21 22 41 22 86 l0 59 175 0 c187 0 224 7 274 53 47 44
61 92 61 220 0 108 2 118 18 113 9 -4 102 -41 206 -84z m-970 -1774 l23 -118
-29 0 -28 0 1 138 c1 75 3 128 6 117 3 -11 15 -73 27 -137z"/>
<path d="M3384 6290 c-46 -23 -84 -81 -84 -127 0 -35 33 -87 73 -117 43 -32
136 -30 171 3 76 72 44 212 -57 250 -40 15 -56 14 -103 -9z"/>
<path d="M2896 5439 c-57 -13 -153 -68 -183 -103 -87 -103 -152 -400 -189
-861 -14 -174 -15 -228 -5 -314 22 -186 74 -273 183 -306 107 -31 482 -18
1003 36 160 16 349 35 422 41 145 13 143 12 143 84 0 30 3 32 43 38 23 4 100
27 171 51 71 25 140 45 154 45 14 0 54 -19 89 -42 l63 -43 -55 -3 -54 -3 -3
-61 -3 -61 -112 2 -113 2 0 -120 0 -121 740 0 740 0 0 -1275 c0 -701 -3 -1275
-7 -1275 -5 1 -252 -30 -550 -67 l-543 -68 0 -102 0 -103 1050 0 1050 0 0 100
0 99 -32 17 c-18 10 -87 41 -153 70 -65 29 -122 59 -125 68 -3 8 -4 582 -2
1276 l2 1260 255 0 256 0 -3 118 -3 117 -510 2 c-280 1 -538 3 -572 3 -45 0
-63 4 -63 13 0 7 144 261 319 565 l319 553 -36 23 c-77 48 -80 49 -95 24 -12
-19 -358 -618 -561 -970 l-50 -88 -398 0 -398 0 12 26 c11 25 7 30 -98 134
l-109 108 -139 33 c-127 30 -144 32 -201 22 -35 -6 -109 -32 -165 -57 -57 -25
-106 -43 -111 -40 -5 3 -9 15 -9 27 0 41 -14 47 -136 63 -203 27 -463 12 -785
-47 -105 -18 -119 -19 -151 -6 -30 13 -34 19 -31 43 54 447 74 904 42 975 -41
89 -168 130 -303 98z m2083 -1376 c2 -2 -14 -3 -36 -3 -30 0 -42 5 -47 18 -3
9 -9 22 -12 29 -4 10 73 -26 95 -44z"/>
<path d="M3400 5013 c-30 -168 -100 -447 -139 -553 -45 -121 -49 -119 185 -76
276 50 362 60 529 60 119 -1 168 -5 239 -22 l88 -22 157 71 c86 39 166 79 177
90 21 20 21 23 8 81 -8 34 -13 62 -12 63 5 3 96 25 106 25 5 0 12 -23 16 -51
5 -34 15 -59 31 -75 40 -40 52 -32 66 46 9 54 16 70 26 65 8 -3 21 -5 28 -5 7
0 16 -15 20 -32 23 -116 56 -165 118 -175 50 -8 53 7 30 117 l-20 90 26 0 c21
-1 34 -14 66 -62 22 -34 55 -71 74 -82 31 -18 35 -18 67 -3 19 9 34 21 34 26
0 4 -22 68 -49 141 -57 153 -75 176 -180 228 -67 33 -83 37 -172 40 -87 4
-110 1 -187 -23 -48 -15 -104 -36 -125 -47 -35 -18 -40 -18 -56 -4 -16 15 -26
11 -122 -40 -57 -31 -189 -99 -294 -151 -104 -53 -247 -126 -317 -164 -162
-87 -161 -88 -207 54 -57 180 -176 517 -182 517 -3 0 -16 -57 -29 -127z"/>
</g>
</svg>
